<svg width="1080" height="1080" viewBox="0 0 1080 1080" fill="none" xmlns="http://www.w3.org/2000/svg">
<path fill-rule="evenodd" clip-rule="evenodd" d="M399.492 502.947C407.494 498.901 412.98 490.602 412.98 481.023C412.98 467.463 401.988 456.471 388.428 456.471C374.869 456.471 363.877 467.463 363.877 481.023C363.877 490.245 368.961 498.28 376.48 502.476L369.5 520.473L361.484 547.646C361.443 547.786 361.433 547.933 361.455 548.077L391.429 747L385.973 648.793L390.642 688.477C390.776 689.62 392.416 689.669 392.619 688.537L400.977 641.973L419.443 544.302C419.48 544.105 419.457 543.902 419.377 543.718L410.525 523.307L399.492 502.947Z" fill="url(#paint0_linear_7_14)"/>
<path d="M571.752 537.97H566.622L526.912 441.83C524.632 436.51 522.795 431.823 521.402 427.77L519.502 442.21L503.922 545H494.612L517.032 408.01H522.352L564.722 508.71C566.875 513.397 568.585 517.83 569.852 522.01C570.232 520.617 572.195 516.247 575.742 508.9L623.052 408.01H628.182L648.892 545H639.392L624.572 441.83C623.559 435.37 623.052 430.493 623.052 427.2C622.925 427.327 622.609 427.96 622.102 429.1C621.722 430.113 620.962 431.887 619.822 434.42C618.809 436.827 617.732 439.36 616.592 442.02L571.752 537.97ZM720.414 545V409.15H783.494V417.13H729.534V467.1H778.364V474.89H729.534V537.02H785.584V545H720.414ZM881.373 417.13H835.393V409.15H936.473V417.13H890.493V545H881.373V417.13Z" fill="#D6D6D6"/>
<path d="M478.335 608.519C471.564 605.644 464.84 604.206 458.162 604.206C444.62 604.206 437.849 609.215 437.849 619.232C437.849 623.591 439.38 627.672 442.441 631.475C445.501 635.185 449.211 638.524 453.571 641.492C457.93 644.368 462.289 647.336 466.649 650.396C471.008 653.457 474.718 657.121 477.779 661.387C480.84 665.654 482.37 670.292 482.37 675.3C482.37 683.74 479.541 690.14 473.883 694.5C468.225 698.766 460.388 700.899 450.371 700.899C440.446 700.899 431.96 698.349 424.911 693.247L428.25 688.239C434.928 692.598 442.255 694.778 450.232 694.778C458.208 694.778 464.33 693.201 468.596 690.048C472.863 686.801 474.996 682.164 474.996 676.135C474.996 671.961 473.466 668.019 470.405 664.309C467.344 660.506 463.634 657.121 459.275 654.153C454.916 651.092 450.556 647.985 446.197 644.831C441.838 641.678 438.128 637.921 435.067 633.562C432.006 629.203 430.476 624.519 430.476 619.51C430.476 612.925 432.887 607.731 437.71 603.928C442.626 600.033 449.211 598.085 457.466 598.085C465.814 598.085 473.559 599.754 480.7 603.093L478.335 608.519ZM603.532 689.63C597.132 697.143 587.393 700.899 574.315 700.899C561.237 700.899 551.452 697.097 544.959 689.491C538.56 681.885 535.36 671.497 535.36 658.327V599.754H542.038V658.327C542.038 682.813 552.75 695.056 574.176 695.056C595.694 695.056 606.453 682.813 606.453 658.327V599.754H613.131V658.327C613.131 671.59 609.931 682.025 603.532 689.63ZM675.359 664.727L661.029 699.23H653.933L695.811 599.059H699.706L741.722 699.23H734.209L719.879 664.727H675.359ZM697.341 610.189C697.248 610.282 697.063 610.838 696.784 611.858C695.486 615.847 694.234 619.232 693.028 622.015L677.724 659.022H717.514L702.21 622.154C698.964 615.105 697.341 611.116 697.341 610.189ZM787.368 699.23V599.754H794.046V693.108H839.818V699.23H787.368ZM929.311 608.519C922.541 605.644 915.816 604.206 909.138 604.206C895.596 604.206 888.826 609.215 888.826 619.232C888.826 623.591 890.356 627.672 893.417 631.475C896.478 635.185 900.188 638.524 904.547 641.492C908.906 644.368 913.265 647.336 917.625 650.396C921.984 653.457 925.694 657.121 928.755 661.387C931.816 665.654 933.346 670.292 933.346 675.3C933.346 683.74 930.517 690.14 924.859 694.5C919.202 698.766 911.364 700.899 901.347 700.899C891.423 700.899 882.936 698.349 875.887 693.247L879.226 688.239C885.904 692.598 893.231 694.778 901.208 694.778C909.184 694.778 915.306 693.201 919.573 690.048C923.839 686.801 925.972 682.164 925.972 676.135C925.972 671.961 924.442 668.019 921.381 664.309C918.32 660.506 914.61 657.121 910.251 654.153C905.892 651.092 901.532 647.985 897.173 644.831C892.814 641.678 889.104 637.921 886.043 633.562C882.982 629.203 881.452 624.519 881.452 619.51C881.452 612.925 883.863 607.731 888.686 603.928C893.602 600.033 900.188 598.085 908.442 598.085C916.79 598.085 924.535 599.754 931.677 603.093L929.311 608.519Z" fill="#D6D6D6"/>
<path d="M296.764 680.309L326.955 608.937H333.633L294.816 699.786H291.06L252.244 608.937H259.2L293.286 689.213C293.75 687.821 294.909 684.853 296.764 680.309Z" fill="#D6D6D6"/>
<path d="M219.3 552.28C199.54 552.28 182.567 545.567 168.38 532.14C154.193 518.587 147.1 501.93 147.1 482.17C147.1 462.283 153.307 445.627 165.72 432.2C178.133 418.647 194.03 411.87 213.41 411.87C228.61 411.87 244 414.403 259.58 419.47L257.11 427.07C241.91 422.51 227.343 420.23 213.41 420.23C196.817 420.23 183.263 426.183 172.75 438.09C162.237 449.997 156.98 464.563 156.98 481.79C156.98 499.017 163.06 513.71 175.22 525.87C187.507 537.903 202.2 543.92 219.3 543.92C234.247 543.92 247.167 541.64 258.06 537.08L260.91 543.54C256.097 546.327 249.763 548.48 241.91 550C234.183 551.52 226.647 552.28 219.3 552.28ZM338.714 531.95C326.174 518.397 319.904 501.74 319.904 481.98C319.904 462.22 326.174 445.627 338.714 432.2C351.38 418.647 367.34 411.87 386.594 411.87C405.847 411.87 421.807 418.647 434.474 432.2C447.14 445.627 453.474 462.22 453.474 481.98C453.474 501.74 447.14 518.397 434.474 531.95C421.807 545.503 405.847 552.28 386.594 552.28C367.34 552.28 351.38 545.503 338.714 531.95ZM345.554 438.09C335.04 449.87 329.784 464.5 329.784 481.98C329.784 499.46 335.04 514.153 345.554 526.06C356.194 537.967 369.874 543.92 386.594 543.92C403.44 543.92 417.12 537.967 427.634 526.06C438.274 514.153 443.594 499.46 443.594 481.98C443.594 464.5 438.274 449.87 427.634 438.09C417.12 426.183 403.44 420.23 386.594 420.23C369.747 420.23 356.067 426.183 345.554 438.09Z" fill="white"/>
<defs>
<linearGradient id="paint0_linear_7_14" x1="390.452" y1="456.471" x2="390.452" y2="747" gradientUnits="userSpaceOnUse">
<stop stop-color="#DBDBDB"/>
<stop offset="1" stop-color="#8E8E8E" stop-opacity="0"/>
</linearGradient>
</defs>
</svg>
